<svg width="25" height="24" viewBox="0 0 25 24" fill="none" xmlns="http://www.w3.org/2000/svg">
<path d="M21.0564 9.99451L21.0564 8.99451C21.0564 8.06454 21.0564 7.59955 20.9542 7.21805C20.6768 6.18277 19.8681 5.37413 18.8329 5.09673C18.4514 4.99451 17.9864 4.99451 17.0564 4.99451" stroke="white" stroke-width="2" stroke-linejoin="round"/>
<path d="M3.0564 9.99451L3.0564 8.99451C3.0564 8.06454 3.0564 7.59955 3.15862 7.21805C3.43602 6.18277 4.24466 5.37413 5.27994 5.09673C5.66144 4.99451 6.12642 4.99451 7.0564 4.99451" stroke="white" stroke-width="2" stroke-linejoin="round"/>
<path d="M21.0564 13.9945L21.0564 14.9945C21.0564 15.9245 21.0564 16.3895 20.9542 16.771C20.6768 17.8062 19.8681 18.6149 18.8329 18.8923C18.4514 18.9945 17.9864 18.9945 17.0564 18.9945" stroke="white" stroke-width="2" stroke-linejoin="round"/>
<path d="M3.0564 13.9945L3.0564 14.9945C3.0564 15.9245 3.0564 16.3895 3.15862 16.771C3.43602 17.8062 4.24466 18.6149 5.27994 18.8923C5.66144 18.9945 6.12643 18.9945 7.0564 18.9945" stroke="white" stroke-width="2" stroke-linejoin="round"/>
<path d="M12.0564 14.9945L12.0564 8.99451" stroke="white" stroke-width="2" stroke-linecap="round" stroke-linejoin="round"/>
<path d="M8.0564 13.9945L8.0564 9.99451" stroke="white" stroke-width="2" stroke-linecap="round" stroke-linejoin="round"/>
<path d="M16.0564 13.9945L16.0564 9.99451" stroke="white" stroke-width="2" stroke-linecap="round" stroke-linejoin="round"/>
</svg>
